<?xml version="1.0"?>
<svg xmlns="http://www.w3.org/2000/svg" id="Layer_1_copy" data-name="Layer 1 copy" viewBox="0 0 64 64" width="512" height="512"><path d="M6,10H54V1A1,1,0,0,0,52.832.014l-47,8A1,1,0,0,0,5,9v1.184A2.965,2.965,0,0,1,6,10Z"/><path d="M47,22H60V13a1,1,0,0,0-1-1H6a1,1,0,0,0-1,1V39.8A14.054,14.054,0,0,1,26.078,52c0,.338-.027.668-.051,1H59a1,1,0,0,0,1-1V42H47a3,3,0,0,1-3-3V25A3,3,0,0,1,47,22Zm7-6h1a1,1,0,0,1,0,2H54a1,1,0,0,1,0-2Zm-4,0h1a1,1,0,0,1,0,2H50a1,1,0,0,1,0-2Zm-4,0h1a1,1,0,0,1,0,2H46a1,1,0,0,1,0-2ZM29,49H28a1,1,0,0,1,0-2h1a1,1,0,0,1,0,2Zm4,0H32a1,1,0,0,1,0-2h1a1,1,0,0,1,0,2Zm4,0H36a1,1,0,0,1,0-2h1a1,1,0,0,1,0,2Z"/><circle cx="55" cy="32" r="1"/><path d="M63,24H47a1,1,0,0,0-1,1V39a1,1,0,0,0,1,1H63a1,1,0,0,0,1-1V25A1,1,0,0,0,63,24ZM55,35a3,3,0,1,1,3-3A3,3,0,0,1,55,35Z"/><path d="M12.014,40.028A11.986,11.986,0,1,0,24,52.014,12,12,0,0,0,12.014,40.028Zm5.692,12.68-3,3a1,1,0,0,1-1.414-1.414L14.586,53H7a1,1,0,0,1,0-2h7.586l-1.293-1.293a1,1,0,0,1,1.414-1.414l3,3,0,0,.706.706-.706.706Z"/></svg>
