<?xml version="1.0" encoding="iso-8859-1"?>
<!-- Generator: Adobe Illustrator 19.0.0, SVG Export Plug-In . SVG Version: 6.00 Build 0)  -->
<svg version="1.1" id="Capa_1" xmlns="http://www.w3.org/2000/svg" xmlns:xlink="http://www.w3.org/1999/xlink" x="0px" y="0px"
	 viewBox="0 0 52.041 52.041" style="enable-background:new 0 0 52.041 52.041;" xml:space="preserve">
<g>
	<g>
		<path d="M43.151,22.95v-6.602c0.002-4.544-1.955-8.666-5.062-11.602C34.984,1.802,30.709,0,26.021,0
			c-4.689,0-8.964,1.802-12.069,4.746c-3.107,2.936-5.064,7.058-5.062,11.602v6.602H4.04v22.626c0,3.556,2.909,6.465,6.465,6.465
			h31.03c3.556,0,6.465-2.909,6.465-6.465V22.95H43.151z M27.636,38.016v4.327h-3.232v-4.327c-0.962-0.56-1.616-1.591-1.616-2.784
			c0-1.786,1.447-3.232,3.232-3.232c1.786,0,3.232,1.447,3.232,3.232C29.253,36.425,28.599,37.456,27.636,38.016z M38.626,22.95
			H13.414v-6.602c0.002-3.235,1.374-6.156,3.649-8.317c2.276-2.155,5.435-3.505,8.957-3.505c3.522,0,6.682,1.35,8.957,3.505
			c2.275,2.162,3.647,5.083,3.649,8.317V22.95z"/>
	</g>
</g>
<g>
</g>
<g>
</g>
<g>
</g>
<g>
</g>
<g>
</g>
<g>
</g>
<g>
</g>
<g>
</g>
<g>
</g>
<g>
</g>
<g>
</g>
<g>
</g>
<g>
</g>
<g>
</g>
<g>
</g>
</svg>
